<svg width="34" height="34" viewBox="0 0 34 34" fill="none" xmlns="http://www.w3.org/2000/svg">
<g clip-path="url(#clip0_1_18)">
<path d="M23.375 12.75C23.375 14.4408 22.7033 16.0623 21.5078 17.2578C20.3123 18.4534 18.6908 19.125 17 19.125C15.3092 19.125 13.6877 18.4534 12.4922 17.2578C11.2966 16.0623 10.625 14.4408 10.625 12.75C10.625 11.0592 11.2966 9.43774 12.4922 8.2422C13.6877 7.04665 15.3092 6.375 17 6.375C18.6908 6.375 20.3123 7.04665 21.5078 8.2422C22.7033 9.43774 23.375 11.0592 23.375 12.75Z" fill="#D9465A"/>
<path fill-rule="evenodd" clip-rule="evenodd" d="M0 17C0 12.4913 1.79107 8.16731 4.97919 4.97919C8.16731 1.79107 12.4913 0 17 0C21.5086 0 25.8328 1.79107 29.0209 4.97919C32.2088 8.16731 34 12.4913 34 17C34 21.5086 32.2088 25.8328 29.0209 29.0209C25.8328 32.2088 21.5086 34 17 34C12.4913 34 8.16731 32.2088 4.97919 29.0209C1.79107 25.8328 0 21.5086 0 17ZM17 2.125C14.1988 2.12515 11.4545 2.91626 9.0831 4.40731C6.71169 5.89834 4.80947 8.0287 3.59541 10.5532C2.38138 13.0776 1.90482 15.8936 2.22062 18.677C2.53642 21.4604 3.63173 24.0979 5.3805 26.2862C6.88925 23.8552 10.2106 21.25 17 21.25C23.7894 21.25 27.1086 23.8531 28.6195 26.2862C30.3682 24.0979 31.4636 21.4604 31.7794 18.677C32.0951 15.8936 31.6187 13.0776 30.4045 10.5532C29.1905 8.0287 27.2884 5.89834 24.9169 4.40731C22.5454 2.91626 19.8012 2.12515 17 2.125Z" fill="#D9465A"/>
</g>
<defs>
<clipPath id="clip0_1_18">
<rect width="34" height="34" fill="white"/>
</clipPath>
</defs>
</svg>
